<svg xmlns="http://www.w3.org/2000/svg" viewBox="0 0 347.52 215.41"><defs><style>.cls-1,.cls-3{fill:#28cb73;}.cls-2{fill:#fff;}.cls-3{font-size:40px;font-family:Poppins-Bold, Poppins;font-weight:700;}</style></defs><g id="Layer_2" data-name="Layer 2"><g id="Layer_2-2" data-name="Layer 2"><path class="cls-1" d="M130.54,145.42l-20.95-20.86h-.81V.5h85.59V66.85L209,80.29V32.9h-8.57V22.82h18.65l0,.5V32.9h0V97.2H176.29l63.23,58.12H224.61L154,90.44,130.4,68.7V31L118.86,19.12V119.59l11.54,11.49V79.94l10.08,9.27v66.11Zm71-58.3-13.93-12.8H151.4l13.92,12.8ZM184.29,64.23V10.58H124.61l11.87,12.24h40.45V52.29l-10.08-9.36v-10H140.48V64.23Z"/><path class="cls-2" d="M193.87,1V67.07l15.62,14.36v-49h-8.57V23.32h17.69V32.4h0V96.7H175l63.22,58.12H224.81L161.59,96.7l-7.21-6.63L136.71,73.82l-1-.89-4.84-4.45V30.81L118.37,17.89h0V119.8h0l12.53,12.48V81.08L140,89.43v64.69l-9.08-9.05-21.1-21h-.52V1h84.59m-57.6,22.32h40.16V51.14l-9.08-8.43V32.4H140V64.5l.25.23h44.56V10.08H123.43l12.84,13.24m28.86,64.3h37.68l-15-13.8H150.12l15,13.8M194.87,0H108.29V125.06h1.1l20.81,20.72,9.08,9.05,1.71,1.7V89l-.33-.3-9.08-8.35L129.9,78.8v51.07l-10.54-10.49v-99L129.9,31.22v37.7l.32.3,4.84,4.45,1,.89L153.7,90.81l7.21,6.63,63.22,58.12.29.26H240.8l-1.89-1.74L177.57,97.7h42V33.4l0-1V22.32H199.92V33.4h8.57V79.15L194.87,66.63V0ZM125.79,11.08h58V63.73H141V33.4h25.37v9.75l.32.29,9.08,8.43,1.68,1.56V22.32H136.69l-10.9-11.24Zm26.89,63.74H187.4l12.84,11.8H165.52l-12.84-11.8Z"/><text class="cls-3" transform="translate(0 191.17)">RB CRYPTOVERSE</text></g></g></svg>